<svg width="50" height="50" viewBox="0 0 50 50" fill="none" xmlns="http://www.w3.org/2000/svg">
<g clip-path="url(#clip0_3410_1095)">
<path d="M27.0044 10.7783C26.9366 9.58555 25.6425 9.78847 24.3799 9.78847C25.3126 10.0225 26.195 10.348 27.0044 10.7783Z" fill="white"/>
<path d="M13.5066 7.78906C8.60487 7.78906 6.34866 13.6335 10.2672 16.5729C11.603 13.213 14.2622 10.8005 17.7483 9.84821C16.7946 8.60634 15.2539 7.78906 13.5066 7.78906Z" fill="white"/>
<path d="M3.38018 15.6582C3.57994 16.2621 3.83875 16.8413 4.14623 17.3901L2.53605 18.9077C2.10365 19.3151 2.10365 19.9762 2.53605 20.3844L5.37421 23.0587C5.58091 23.2534 5.86411 23.363 6.15928 23.363C6.4512 23.363 6.7325 23.2534 6.94278 23.0587L8.55116 21.5411C8.79253 21.6614 9.06007 21.7352 9.31005 21.8389C9.31005 21.8217 9.30826 21.8038 9.30826 21.7865C9.30826 20.5463 9.45948 19.3764 9.7287 18.2778C7.78679 17.1005 6.49102 15.0569 6.49102 12.7238C6.49102 9.07916 9.63833 6.1136 13.5065 6.1136C16.1258 6.1136 18.3872 7.48717 19.5944 9.49396C20.8832 9.3434 22.0939 9.3434 23.5512 9.60279C23.3637 9.06862 23.1431 8.54583 22.8669 8.0558L24.4771 6.53746C24.6871 6.34191 24.8034 6.07598 24.8034 5.79952C24.8034 5.52295 24.6871 5.25713 24.4771 5.06158L21.6405 2.38892C21.4235 2.18442 21.1403 2.08296 20.8572 2.08296C20.574 2.08296 20.2909 2.18442 20.0755 2.38892L18.4602 3.90726C17.8766 3.61605 17.2635 3.37225 16.6209 3.18818V1.04306C16.6209 0.467165 16.1276 0 15.5144 0H11.5004C10.8907 0 10.3921 0.467165 10.3921 1.04306V3.18808C9.75118 3.37214 9.13792 3.61594 8.55261 3.90716L6.94278 2.3905C6.72557 2.186 6.44248 2.08454 6.15928 2.08454C5.87619 2.08454 5.59142 2.186 5.376 2.38966L2.53605 5.06232C2.32936 5.25871 2.21304 5.52369 2.21304 5.8011C2.21304 6.07841 2.32936 6.34349 2.53605 6.53904L4.14623 8.05654C3.83864 8.6063 3.57994 9.18473 3.38375 9.78844H1.10831C0.495154 9.78844 0 10.2563 0 10.8331V14.6143C0 15.1894 0.495154 15.6582 1.10831 15.6582H3.38018Z" fill="white"/>
<path d="M38.1519 35.8919C39.9272 34.9748 41.1464 33.2193 41.1464 31.1821C41.1464 28.2091 38.5776 25.791 35.4216 25.791C34.3117 25.791 33.2832 26.1035 32.4045 26.6205C31.8782 28.5937 31.0496 30.4811 29.9658 32.1205C33.0383 32.6646 35.8574 33.9825 38.1519 35.8919Z" fill="white"/>
<path d="M49.9983 29.1413C49.9983 28.5187 49.4615 28.0147 48.8031 28.0147H46.3473C46.1352 27.3626 45.8539 26.7376 45.5204 26.1446L47.259 24.5068C47.4849 24.2957 47.6098 24.0094 47.6098 23.7109C47.6098 23.4122 47.4848 23.1258 47.259 22.914L44.1985 20.0302C43.9658 19.81 43.6583 19.6996 43.3528 19.6996C43.047 19.6996 42.7413 19.81 42.5086 20.0302L40.7665 21.6688C40.1376 21.3546 39.4759 21.0913 38.7811 20.8924V18.5789C38.7811 17.9572 38.2478 17.4531 37.5878 17.4531H33.2577C32.9675 17.4531 32.7122 17.5627 32.5039 17.7247C32.8685 18.978 33.0683 20.3369 33.0683 21.7866C33.0683 22.7069 32.992 23.6413 32.8495 24.5705C33.6554 24.2907 34.5134 24.1149 35.4219 24.1149C39.5592 24.1149 42.9254 27.2851 42.9254 31.1814C42.9254 33.6718 41.5446 35.8544 39.4724 37.1134C40.9801 38.6711 42.1786 40.5191 42.9585 42.5896C43.0869 42.6313 43.2207 42.6617 43.3544 42.6617C43.6601 42.6617 43.9659 42.5521 44.2004 42.3319L47.2627 39.4481C47.4868 39.237 47.6101 38.9507 47.6101 38.6521C47.6101 38.3535 47.4868 38.0673 47.2627 37.8553L45.5205 36.2167C45.854 35.6245 46.1353 34.9993 46.3474 34.3466H48.8033C49.1193 34.3466 49.4268 34.2288 49.6492 34.016C49.8733 33.8057 50.0002 33.5187 50.0002 33.22L49.9983 29.1413Z" fill="white"/>
<path d="M40.5199 43.6096C38.663 38.463 33.7563 34.9232 28.0921 34.4414C26.1954 36.3335 23.847 37.5338 21.1876 37.5338C18.5302 37.5338 16.18 36.3336 14.2851 34.4414C8.61748 34.9232 3.71057 38.463 1.85366 43.6104L0.827229 46.4565C0.533627 47.2755 0.67422 48.1779 1.2093 48.8805C1.74428 49.5834 2.60584 50.0006 3.52289 50.0006H38.8506C39.7694 50.0006 40.631 49.5834 41.1661 48.8805C41.6993 48.1779 41.8418 47.2755 41.5464 46.4565L40.5199 43.6096Z" fill="white"/>
<path d="M11.9766 21.7858C11.9766 28.1694 16.1019 35.0193 21.1875 35.0193C26.2752 35.0193 30.4003 28.1694 30.4003 21.7858C30.4004 8.55327 11.9766 8.52703 11.9766 21.7858Z" fill="white"/>
</g>
<defs>
<clipPath id="clip0_3410_1095">
<rect width="50" height="50" fill="white"/>
</clipPath>
</defs>
</svg>
