<svg width="200" height="180" viewBox="0 0 200 180" fill="none" xmlns="http://www.w3.org/2000/svg">
<path d="M0 10C0 4.47715 4.47715 0 10 0H190C195.523 0 200 4.47715 200 10V170C200 175.523 195.523 180 190 180H10C4.47716 180 0 175.523 0 170V10Z" fill="#265F7C"/>
<path d="M109.584 43.582H71.2503C68.7087 43.582 66.2711 44.5917 64.4739 46.3889C62.6767 48.1861 61.667 50.6237 61.667 53.1654V129.832C61.667 132.374 62.6767 134.811 64.4739 136.608C66.2711 138.406 68.7087 139.415 71.2503 139.415H128.75C131.292 139.415 133.73 138.406 135.527 136.608C137.324 134.811 138.334 132.374 138.334 129.832V72.332M109.584 43.582L138.334 72.332M109.584 43.582V72.332H138.334M119.167 96.2904H80.8337M119.167 115.457H80.8337M90.417 77.1237H80.8337" stroke="white" stroke-width="4" stroke-linecap="round" stroke-linejoin="round"/>
<path d="M48.902 173.14C47.376 173.14 46.368 172.468 45.696 171.67L47.054 170.158C47.614 170.774 48.16 171.138 48.846 171.138C49.672 171.138 50.162 170.648 50.162 169.514V163.2H52.374V169.612C52.374 170.788 52.052 171.628 51.45 172.23C50.848 172.832 49.966 173.14 48.902 173.14ZM58.0363 173.168C55.7263 173.168 53.9903 171.46 53.9903 169.29V169.262C53.9903 167.106 55.7263 165.356 58.0643 165.356C60.3743 165.356 62.1103 167.064 62.1103 169.234V169.262C62.1103 171.418 60.3743 173.168 58.0363 173.168ZM58.0643 171.334C59.2823 171.334 60.0103 170.41 60.0103 169.29V169.262C60.0103 168.156 59.2123 167.19 58.0363 167.19C56.8183 167.19 56.0903 168.114 56.0903 169.234V169.262C56.0903 170.368 56.8883 171.334 58.0643 171.334ZM63.6932 164.67V162.78H65.9332V164.67H63.6932ZM63.7492 173V165.496H65.8772V173H63.7492ZM67.8758 173V165.496H70.0038V166.56C70.4938 165.93 71.1378 165.356 72.2018 165.356C73.8258 165.356 74.7498 166.406 74.7498 168.142V173H72.6218V168.814C72.6218 167.806 72.1598 167.288 71.3338 167.288C70.5078 167.288 70.0038 167.806 70.0038 168.814V173H67.8758ZM83.3298 173.126C82.0418 173.126 81.1458 172.608 81.1458 170.872V167.316H80.2498V165.496H81.1458V163.578H83.2738V165.496H85.0378V167.316H83.2738V170.522C83.2738 171.012 83.4978 171.25 83.9597 171.25C84.3378 171.25 84.6878 171.166 85.0098 170.984V172.692C84.5618 172.958 84.0438 173.126 83.3298 173.126ZM86.6063 173V162.78H88.7343V166.56C89.2243 165.93 89.8683 165.356 90.9323 165.356C92.5563 165.356 93.4803 166.406 93.4803 168.142V173H91.3523V168.814C91.3523 167.806 90.8903 167.288 90.0643 167.288C89.2383 167.288 88.7343 167.806 88.7343 168.814V173H86.6063ZM98.885 173.168C96.631 173.168 94.965 171.586 94.965 169.29V169.262C94.965 167.12 96.491 165.356 98.675 165.356C101.181 165.356 102.329 167.302 102.329 169.43C102.329 169.598 102.315 169.78 102.301 169.99H97.079C97.289 170.956 97.961 171.46 98.913 171.46C99.627 171.46 100.131 171.236 100.733 170.69L101.951 171.768C101.237 172.65 100.243 173.168 98.885 173.168ZM97.051 168.66H100.257C100.131 167.708 99.571 167.064 98.675 167.064C97.779 167.064 97.219 167.694 97.051 168.66ZM108.336 173V163.2H110.492V167.078H114.468V163.2H116.624V173H114.468V169.066H110.492V173H108.336ZM122.305 173.168C120.051 173.168 118.385 171.586 118.385 169.29V169.262C118.385 167.12 119.911 165.356 122.095 165.356C124.601 165.356 125.749 167.302 125.749 169.43C125.749 169.598 125.735 169.78 125.721 169.99H120.499C120.709 170.956 121.381 171.46 122.333 171.46C123.047 171.46 123.551 171.236 124.153 170.69L125.371 171.768C124.657 172.65 123.663 173.168 122.305 173.168ZM120.471 168.66H123.677C123.551 167.708 122.991 167.064 122.095 167.064C121.199 167.064 120.639 167.694 120.471 168.66ZM127.335 173V165.496H129.463V167.008C129.897 165.986 130.583 165.3 131.857 165.356V167.582H131.745C130.331 167.582 129.463 168.422 129.463 170.228V173H127.335ZM134.959 173.14C133.545 173.14 132.383 172.342 132.383 170.844V170.816C132.383 169.192 133.629 168.422 135.407 168.422C136.177 168.422 136.695 168.548 137.241 168.73V168.604C137.241 167.708 136.695 167.232 135.631 167.232C134.805 167.232 134.245 167.372 133.559 167.638L133.027 166.014C133.853 165.664 134.665 165.412 135.939 165.412C137.115 165.412 137.927 165.706 138.473 166.252C139.033 166.812 139.285 167.638 139.285 168.646V173H137.227V172.188C136.709 172.762 136.009 173.14 134.959 173.14ZM135.603 171.67C136.611 171.67 137.269 171.138 137.269 170.354V169.976C136.891 169.808 136.429 169.696 135.911 169.696C135.001 169.696 134.441 170.06 134.441 170.732V170.76C134.441 171.334 134.917 171.67 135.603 171.67ZM141.214 173V162.78H143.342V173H141.214ZM148.421 173.14C146.671 173.14 145.005 171.768 145.005 169.262V169.234C145.005 166.728 146.643 165.356 148.421 165.356C149.555 165.356 150.255 165.874 150.759 166.476V162.78H152.887V173H150.759V171.922C150.241 172.636 149.541 173.14 148.421 173.14ZM148.967 171.334C149.961 171.334 150.787 170.508 150.787 169.262V169.234C150.787 167.988 149.961 167.162 148.967 167.162C147.973 167.162 147.133 167.974 147.133 169.234V169.262C147.133 170.508 147.973 171.334 148.967 171.334Z" fill="white"/>
</svg>
