<svg width="200" height="180" viewBox="0 0 200 180" fill="none" xmlns="http://www.w3.org/2000/svg">
<path d="M0 10C0 4.47715 4.47715 0 10 0H190C195.523 0 200 4.47715 200 10V170C200 175.523 195.523 180 190 180H10C4.47716 180 0 175.523 0 170V10Z" fill="#265F7C"/>
<path d="M147.916 71.2513C147.916 67.0805 143.604 63.668 138.333 63.668H61.6663C56.3955 63.668 52.083 67.0805 52.083 71.2513M147.916 71.2513V116.751C147.916 120.922 143.604 124.335 138.333 124.335H61.6663C56.3955 124.335 52.083 120.922 52.083 116.751V71.2513M147.916 71.2513L99.9997 97.793L52.083 71.2513" stroke="white" stroke-width="4" stroke-linecap="round" stroke-linejoin="round"/>
<path d="M36.176 158.5V148.7H40.656C41.902 148.7 42.854 149.036 43.512 149.694C44.072 150.254 44.352 150.996 44.352 151.934V151.962C44.352 153.544 43.498 154.538 42.252 155L44.646 158.5H42.126L40.026 155.364H38.332V158.5H36.176ZM38.332 153.46H40.516C41.58 153.46 42.168 152.914 42.168 152.074V152.046C42.168 151.108 41.538 150.646 40.474 150.646H38.332V153.46ZM49.4885 158.668C47.2345 158.668 45.5685 157.086 45.5685 154.79V154.762C45.5685 152.62 47.0945 150.856 49.2785 150.856C51.7845 150.856 52.9325 152.802 52.9325 154.93C52.9325 155.098 52.9185 155.28 52.9045 155.49H47.6825C47.8925 156.456 48.5645 156.96 49.5165 156.96C50.2305 156.96 50.7345 156.736 51.3365 156.19L52.5545 157.268C51.8405 158.15 50.8465 158.668 49.4885 158.668ZM47.6545 154.16H50.8605C50.7345 153.208 50.1745 152.564 49.2785 152.564C48.3825 152.564 47.8225 153.194 47.6545 154.16ZM59.9364 160.74V157.422C59.4184 158.136 58.7184 158.64 57.5984 158.64C55.8484 158.64 54.1824 157.268 54.1824 154.762V154.734C54.1824 152.228 55.8204 150.856 57.5984 150.856C58.7324 150.856 59.4324 151.374 59.9364 151.976V150.996H62.0644V160.74H59.9364ZM58.1444 156.834C59.1384 156.834 59.9644 156.008 59.9644 154.762V154.734C59.9644 153.488 59.1384 152.662 58.1444 152.662C57.1504 152.662 56.3104 153.474 56.3104 154.734V154.762C56.3104 156.008 57.1504 156.834 58.1444 156.834ZM66.4577 158.64C64.8337 158.64 63.9097 157.59 63.9097 155.854V150.996H66.0377V155.182C66.0377 156.19 66.4997 156.708 67.3257 156.708C68.1517 156.708 68.6557 156.19 68.6557 155.182V150.996H70.7837V158.5H68.6557V157.436C68.1657 158.066 67.5217 158.64 66.4577 158.64ZM76.2443 158.668C73.9903 158.668 72.3243 157.086 72.3243 154.79V154.762C72.3243 152.62 73.8503 150.856 76.0343 150.856C78.5403 150.856 79.6883 152.802 79.6883 154.93C79.6883 155.098 79.6743 155.28 79.6603 155.49H74.4383C74.6483 156.456 75.3203 156.96 76.2723 156.96C76.9863 156.96 77.4903 156.736 78.0923 156.19L79.3103 157.268C78.5963 158.15 77.6023 158.668 76.2443 158.668ZM74.4103 154.16H77.6163C77.4903 153.208 76.9303 152.564 76.0343 152.564C75.1383 152.564 74.5783 153.194 74.4103 154.16ZM83.9063 158.64C82.8423 158.64 81.6943 158.29 80.6863 157.506L81.5963 156.106C82.4223 156.708 83.2483 157.002 83.9623 157.002C84.5783 157.002 84.8583 156.778 84.8583 156.442V156.414C84.8583 155.952 84.1303 155.812 83.3043 155.546C82.2543 155.252 81.0643 154.748 81.0643 153.292V153.264C81.0643 151.738 82.2963 150.884 83.8083 150.884C84.7603 150.884 85.7823 151.206 86.6083 151.752L85.7963 153.222C85.0543 152.788 84.3123 152.522 83.7663 152.522C83.2483 152.522 82.9823 152.746 82.9823 153.04V153.068C82.9823 153.46 83.6963 153.712 84.5083 153.964C85.5583 154.3 86.7763 154.818 86.7763 156.19V156.218C86.7763 157.884 85.5303 158.64 83.9063 158.64ZM90.6989 158.626C89.4109 158.626 88.5149 158.108 88.5149 156.372V152.816H87.6189V150.996H88.5149V149.078H90.6429V150.996H92.4069V152.816H90.6429V156.022C90.6429 156.512 90.8669 156.75 91.3289 156.75C91.7069 156.75 92.0569 156.666 92.3789 156.484V158.192C91.9309 158.458 91.4129 158.626 90.6989 158.626ZM102.989 158.668C100.105 158.668 97.9627 156.442 97.9627 153.628V153.6C97.9627 150.814 100.063 148.532 103.073 148.532C104.907 148.532 106.041 149.148 106.937 150.044L105.565 151.626C104.795 150.94 104.053 150.52 103.059 150.52C101.407 150.52 100.217 151.892 100.217 153.572V153.6C100.217 155.28 101.379 156.68 103.059 156.68C104.179 156.68 104.865 156.246 105.635 155.532L107.007 156.918C105.999 157.996 104.893 158.668 102.989 158.668ZM112.054 158.668C109.744 158.668 108.008 156.96 108.008 154.79V154.762C108.008 152.606 109.744 150.856 112.082 150.856C114.392 150.856 116.128 152.564 116.128 154.734V154.762C116.128 156.918 114.392 158.668 112.054 158.668ZM112.082 156.834C113.3 156.834 114.028 155.91 114.028 154.79V154.762C114.028 153.656 113.23 152.69 112.054 152.69C110.836 152.69 110.108 153.614 110.108 154.734V154.762C110.108 155.868 110.906 156.834 112.082 156.834ZM119.527 158.556L116.573 150.996H118.827L120.507 156.022L122.201 150.996H124.413L121.459 158.556H119.527ZM128.772 158.668C126.518 158.668 124.852 157.086 124.852 154.79V154.762C124.852 152.62 126.378 150.856 128.562 150.856C131.068 150.856 132.216 152.802 132.216 154.93C132.216 155.098 132.202 155.28 132.188 155.49H126.966C127.176 156.456 127.848 156.96 128.8 156.96C129.514 156.96 130.018 156.736 130.62 156.19L131.838 157.268C131.124 158.15 130.13 158.668 128.772 158.668ZM126.938 154.16H130.144C130.018 153.208 129.458 152.564 128.562 152.564C127.666 152.564 127.106 153.194 126.938 154.16ZM133.802 158.5V150.996H135.93V152.508C136.364 151.486 137.05 150.8 138.324 150.856V153.082H138.212C136.798 153.082 135.93 153.922 135.93 155.728V158.5H133.802ZM141.426 158.64C140.012 158.64 138.85 157.842 138.85 156.344V156.316C138.85 154.692 140.096 153.922 141.874 153.922C142.644 153.922 143.162 154.048 143.708 154.23V154.104C143.708 153.208 143.162 152.732 142.098 152.732C141.272 152.732 140.712 152.872 140.026 153.138L139.494 151.514C140.32 151.164 141.132 150.912 142.406 150.912C143.582 150.912 144.394 151.206 144.94 151.752C145.5 152.312 145.752 153.138 145.752 154.146V158.5H143.694V157.688C143.176 158.262 142.476 158.64 141.426 158.64ZM142.07 157.17C143.078 157.17 143.736 156.638 143.736 155.854V155.476C143.358 155.308 142.896 155.196 142.378 155.196C141.468 155.196 140.908 155.56 140.908 156.232V156.26C140.908 156.834 141.384 157.17 142.07 157.17ZM150.943 160.768C149.711 160.768 148.577 160.488 147.625 159.984L148.353 158.388C149.137 158.822 149.879 159.074 150.887 159.074C152.343 159.074 153.029 158.374 153.029 157.03V156.666C152.399 157.436 151.713 157.884 150.579 157.884C148.829 157.884 147.247 156.624 147.247 154.384V154.356C147.247 152.116 148.857 150.856 150.579 150.856C151.741 150.856 152.427 151.346 153.001 151.976V150.996H155.129V156.806C155.129 158.136 154.807 159.13 154.177 159.76C153.463 160.474 152.399 160.768 150.943 160.768ZM151.195 156.12C152.245 156.12 153.029 155.406 153.029 154.384V154.356C153.029 153.334 152.245 152.62 151.195 152.62C150.159 152.62 149.375 153.334 149.375 154.356V154.384C149.375 155.434 150.145 156.12 151.195 156.12ZM160.586 158.668C158.332 158.668 156.666 157.086 156.666 154.79V154.762C156.666 152.62 158.192 150.856 160.376 150.856C162.882 150.856 164.03 152.802 164.03 154.93C164.03 155.098 164.016 155.28 164.002 155.49H158.78C158.99 156.456 159.662 156.96 160.614 156.96C161.328 156.96 161.832 156.736 162.434 156.19L163.652 157.268C162.938 158.15 161.944 158.668 160.586 158.668ZM158.752 154.16H161.958C161.832 153.208 161.272 152.564 160.376 152.564C159.48 152.564 158.92 153.194 158.752 154.16Z" fill="white"/>
</svg>
