<svg width="200" height="180" viewBox="0 0 200 180" fill="none" xmlns="http://www.w3.org/2000/svg">
<path d="M0 10C0 4.47715 4.47715 0 10 0H190C195.523 0 200 4.47715 200 10V170C200 175.523 195.523 180 190 180H10C4.47716 180 0 175.523 0 170V10Z" fill="#265F7C"/>
<path d="M100 91.5013V49.8346C100 48.6541 100.4 47.6645 101.198 46.8659C101.997 46.0673 102.986 45.668 104.167 45.668C105.348 45.668 106.337 46.0673 107.136 46.8659C107.934 47.6645 108.334 48.6541 108.334 49.8346V91.5013H100ZM83.3337 91.5013V54.0013C83.3337 52.8207 83.733 51.8312 84.5316 51.0326C85.3302 50.2339 86.3198 49.8346 87.5003 49.8346C88.6809 49.8346 89.6705 50.2339 90.4691 51.0326C91.2677 51.8312 91.667 52.8207 91.667 54.0013V91.5013H83.3337ZM102.084 137.335C92.2225 137.335 83.8545 133.897 76.9795 127.022C70.1045 120.147 66.667 111.779 66.667 101.918V62.3346C66.667 61.1541 67.0663 60.1645 67.8649 59.3659C68.6635 58.5673 69.6531 58.168 70.8337 58.168C72.0142 58.168 73.0038 58.5673 73.8024 59.3659C74.601 60.1645 75.0003 61.1541 75.0003 62.3346V101.918C75.0003 109.487 77.6219 115.894 82.8649 121.137C88.108 126.38 94.5142 129.001 102.084 129.001C109.653 129.001 116.059 126.38 121.302 121.137C126.545 115.894 129.167 109.487 129.167 101.918V87.3346C127.986 87.3346 126.997 87.7339 126.198 88.5326C125.4 89.3312 125 90.3208 125 91.5013V108.168H112.5C110.209 108.168 108.247 108.984 106.615 110.616C104.983 112.248 104.167 114.21 104.167 116.501V120.668H95.8337V116.501C95.8337 111.918 97.4656 107.994 100.729 104.73C103.993 101.467 107.917 99.8346 112.5 99.8346H116.667V58.168C116.667 56.9874 117.066 55.9978 117.865 55.1992C118.664 54.4006 119.653 54.0013 120.834 54.0013C122.014 54.0013 123.004 54.4006 123.802 55.1992C124.601 55.9978 125 56.9874 125 58.168V79.7305C125.695 79.5221 126.372 79.3485 127.032 79.2096C127.691 79.0708 128.403 79.0013 129.167 79.0013H137.5V101.918C137.5 111.779 134.063 120.147 127.188 127.022C120.313 133.897 111.945 137.335 102.084 137.335Z" fill="white"/>
<path d="M49.662 165.64C48.164 165.64 46.68 165.136 45.504 164.072L46.778 162.546C47.674 163.274 48.584 163.736 49.704 163.736C50.6 163.736 51.118 163.386 51.118 162.812V162.784C51.118 162.238 50.782 161.944 49.144 161.538C47.156 161.048 45.896 160.474 45.896 158.542V158.514C45.896 156.736 47.31 155.56 49.326 155.56C50.768 155.56 51.958 156.008 52.966 156.806L51.846 158.43C50.964 157.828 50.138 157.464 49.298 157.464C48.458 157.464 48.038 157.828 48.038 158.318V158.346C48.038 159.004 48.458 159.186 50.152 159.634C52.14 160.166 53.26 160.866 53.26 162.574V162.602C53.26 164.548 51.776 165.64 49.662 165.64ZM58.4631 165.668C56.2091 165.668 54.5431 164.086 54.5431 161.79V161.762C54.5431 159.62 56.0691 157.856 58.2531 157.856C60.7591 157.856 61.9071 159.802 61.9071 161.93C61.9071 162.098 61.8931 162.28 61.8791 162.49H56.6571C56.8671 163.456 57.5391 163.96 58.4911 163.96C59.2051 163.96 59.7091 163.736 60.3111 163.19L61.5291 164.268C60.8151 165.15 59.8211 165.668 58.4631 165.668ZM56.6291 161.16H59.8351C59.7091 160.208 59.1491 159.564 58.2531 159.564C57.3571 159.564 56.7971 160.194 56.6291 161.16ZM63.493 165.5V157.996H65.621V159.06C66.111 158.43 66.755 157.856 67.819 157.856C69.443 157.856 70.367 158.906 70.367 160.642V165.5H68.239V161.314C68.239 160.306 67.777 159.788 66.951 159.788C66.125 159.788 65.621 160.306 65.621 161.314V165.5H63.493ZM75.2957 165.64C73.5457 165.64 71.8797 164.268 71.8797 161.762V161.734C71.8797 159.228 73.5177 157.856 75.2957 157.856C76.4297 157.856 77.1297 158.374 77.6337 158.976V155.28H79.7617V165.5H77.6337V164.422C77.1157 165.136 76.4157 165.64 75.2957 165.64ZM75.8417 163.834C76.8357 163.834 77.6617 163.008 77.6617 161.762V161.734C77.6617 160.488 76.8357 159.662 75.8417 159.662C74.8477 159.662 74.0077 160.474 74.0077 161.734V161.762C74.0077 163.008 74.8477 163.834 75.8417 163.834ZM86.0842 165.5V155.7H93.5462V157.66H88.2402V159.746H92.9162V161.706H88.2402V165.5H86.0842ZM98.3986 165.668C96.1446 165.668 94.4786 164.086 94.4786 161.79V161.762C94.4786 159.62 96.0046 157.856 98.1886 157.856C100.695 157.856 101.843 159.802 101.843 161.93C101.843 162.098 101.829 162.28 101.815 162.49H96.5926C96.8026 163.456 97.4746 163.96 98.4266 163.96C99.1406 163.96 99.6446 163.736 100.247 163.19L101.465 164.268C100.751 165.15 99.7566 165.668 98.3986 165.668ZM96.5646 161.16H99.7706C99.6446 160.208 99.0846 159.564 98.1886 159.564C97.2926 159.564 96.7326 160.194 96.5646 161.16ZM106.985 165.668C104.731 165.668 103.065 164.086 103.065 161.79V161.762C103.065 159.62 104.591 157.856 106.775 157.856C109.281 157.856 110.429 159.802 110.429 161.93C110.429 162.098 110.415 162.28 110.401 162.49H105.179C105.389 163.456 106.061 163.96 107.013 163.96C107.727 163.96 108.231 163.736 108.833 163.19L110.051 164.268C109.337 165.15 108.343 165.668 106.985 165.668ZM105.151 161.16H108.357C108.231 160.208 107.671 159.564 106.775 159.564C105.879 159.564 105.319 160.194 105.151 161.16ZM115.095 165.64C113.345 165.64 111.679 164.268 111.679 161.762V161.734C111.679 159.228 113.317 157.856 115.095 157.856C116.229 157.856 116.929 158.374 117.433 158.976V155.28H119.561V165.5H117.433V164.422C116.915 165.136 116.215 165.64 115.095 165.64ZM115.641 163.834C116.635 163.834 117.461 163.008 117.461 161.762V161.734C117.461 160.488 116.635 159.662 115.641 159.662C114.647 159.662 113.807 160.474 113.807 161.734V161.762C113.807 163.008 114.647 163.834 115.641 163.834ZM125.928 165.64C124.794 165.64 124.094 165.122 123.59 164.52V165.5H121.462V155.28H123.59V159.074C124.108 158.36 124.808 157.856 125.928 157.856C127.678 157.856 129.344 159.228 129.344 161.734V161.762C129.344 164.268 127.706 165.64 125.928 165.64ZM125.382 163.834C126.376 163.834 127.216 163.022 127.216 161.762V161.734C127.216 160.488 126.376 159.662 125.382 159.662C124.388 159.662 123.562 160.488 123.562 161.734V161.762C123.562 163.008 124.388 163.834 125.382 163.834ZM133.037 165.64C131.623 165.64 130.461 164.842 130.461 163.344V163.316C130.461 161.692 131.707 160.922 133.485 160.922C134.255 160.922 134.773 161.048 135.319 161.23V161.104C135.319 160.208 134.773 159.732 133.709 159.732C132.883 159.732 132.323 159.872 131.637 160.138L131.105 158.514C131.931 158.164 132.743 157.912 134.017 157.912C135.193 157.912 136.005 158.206 136.551 158.752C137.111 159.312 137.363 160.138 137.363 161.146V165.5H135.305V164.688C134.787 165.262 134.087 165.64 133.037 165.64ZM133.681 164.17C134.689 164.17 135.347 163.638 135.347 162.854V162.476C134.969 162.308 134.507 162.196 133.989 162.196C133.079 162.196 132.519 162.56 132.519 163.232V163.26C132.519 163.834 132.995 164.17 133.681 164.17ZM142.736 165.668C140.482 165.668 138.83 163.918 138.83 161.79V161.762C138.83 159.62 140.468 157.856 142.764 157.856C144.178 157.856 145.046 158.332 145.76 159.116L144.458 160.516C143.968 160.012 143.52 159.69 142.75 159.69C141.686 159.69 140.93 160.614 140.93 161.734V161.762C140.93 162.924 141.672 163.834 142.834 163.834C143.548 163.834 144.038 163.526 144.556 163.036L145.802 164.296C145.074 165.094 144.234 165.668 142.736 165.668ZM147.192 165.5V155.28H149.32V160.726L151.812 157.996H154.36L151.504 160.95L154.458 165.5H151.994L150.076 162.42L149.32 163.218V165.5H147.192Z" fill="white"/>
</svg>
